# xmcd
#
# Track frame offsets:
#	150
#	29117
#	66928
#	97250
#	131925
#
# Disc length: 2053 seconds
#
# Revision: 1
# Processed by: cddbd v1.5.1PL0 Copyright (c) Steve Scherf et al.
# Submitted via: EasyCDDAExtractor 5.0.6
#
DISCID=50080305
DTITLE=Aviator Lane - Today, The Hills Are Closed
DYEAR=2005
DGENRE=Indie
TTITLE0=Lengthways We'll Run
TTITLE1=Lines End
TTITLE2=Today, The Hills Are Closed
TTITLE3=A Sudden Farewell
TTITLE4=Heavy Horse Memorial
EXTD=YEAR: 2005
EXTT0=
EXTT1=
EXTT2=
EXTT3=
EXTT4=
PLAYORDER=
